<?xml version="1.0" encoding="UTF-8"?>
<svg xmlns="http://www.w3.org/2000/svg" xmlns:xlink="http://www.w3.org/1999/xlink" width="384.1pt" height="423.7pt" viewBox="0 0 384.1 423.7" version="1.1">
<defs>
<clipPath id="clip1">
  <path d="M 0 0 L 384.101563 0 L 384.101563 423.699219 L 0 423.699219 Z M 0 0 "/>
</clipPath>
</defs>
<g id="surface1">
<g clip-path="url(#clip1)" clip-rule="nonzero">
<path style=" stroke:none;fill-rule:evenodd;fill:rgb(0%,25.097656%,56.443787%);fill-opacity:1;" d="M 0.0078125 -0.0078125 L 384.195313 -0.0078125 L 384.195313 423.609375 L 0.0078125 423.609375 Z M 199.179688 51.605469 C 289.613281 51.605469 362.925781 124.917969 362.925781 215.351563 C 362.925781 299.804688 298.992188 369.3125 216.886719 378.144531 L 216.886719 351.773438 C 246.476563 347.917969 273.097656 334.535156 293.617188 314.78125 L 104.742188 314.78125 C 125.261719 334.535156 151.882813 347.917969 181.472656 351.773438 L 181.472656 378.144531 C 99.367188 369.3125 35.433594 299.804688 35.433594 215.351563 C 35.433594 124.917969 108.746094 51.605469 199.179688 51.605469 Z M 292.554688 229.125 C 305.085938 216.191406 303.914063 196.242188 299.820313 190.382813 C 296.964844 195.125 294.785156 197.40625 289.226563 202.792969 L 241.101563 249.402344 C 227.816406 262.269531 216.445313 287.140625 232.324219 304.1875 C 233.121094 294.554688 239.722656 282.664063 247.453125 274.828125 Z M 294.980469 172.710938 C 307.585938 159.847656 306.640625 141.039063 300.730469 131.542969 C 297.871094 136.285156 297.132813 140.914063 291.652344 146.375 L 199.546875 238.179688 C 186.449219 251.234375 173.371094 276.21875 192.890625 302.066406 C 193.691406 292.429688 195.496094 274.222656 205.902344 263.605469 Z M 242.03125 122.988281 C 254.746094 110.238281 259.910156 93.425781 244.820313 75.597656 C 244.28125 84.824219 239.984375 95.085938 234.480469 100.527344 L 137.171875 196.773438 C 124.027344 209.773438 110.097656 234.175781 128.992188 260.480469 C 130.019531 250.867188 132.421875 232.867188 142.914063 222.34375 Z M 203.210938 112.070313 C 215.972656 99.363281 218.65625 78.867188 201.449219 64.074219 C 200.90625 73.296875 196.503906 83.460938 191.109375 89 L 105.324219 177.058594 C 87.488281 195.371094 80.671875 229.929688 107.152344 250.46875 C 100.902344 221.445313 112.664063 202.195313 123.203125 191.710938 Z M 258.886719 156.332031 C 271.386719 143.367188 270.546875 124.660156 264.636719 115.160156 C 263.296875 119.90625 260.996094 124.488281 255.558594 129.996094 L 162.238281 224.53125 C 149.246094 237.691406 129.089844 270.761719 154.976563 301.761719 C 152.136719 283.9375 158.277344 260.65625 168.59375 249.957031 Z M 258.886719 156.332031 "/>
</g>
</g>
</svg>
